<?xml version="1.0" encoding="UTF-8"?>
<svg id="Ebene_1" xmlns="http://www.w3.org/2000/svg" version="1.1" viewBox="0 0 500 144.1944543">
  <!-- Generator: Adobe Illustrator 29.0.0, SVG Export Plug-In . SVG Version: 2.1.0 Build 186)  -->
  <defs>
    <style>
      .st0 {
        fill: #1d1d1b;
      }

      .st1 {
        fill: #fff;
      }

      .st2 {
        fill: #fff100;
      }
    </style>
  </defs>
  <path class="st2" d="M72.096056,144.1933796C32.2794728,144.1933796,0,111.9140298,0,72.0972294,0,32.2804906,32.1155869.0010747,72.096056.0010747,112.0768437.0010747,144.1923002,32.2804906,144.1923002,72.0972294c0,39.8168004-32.2793932,72.0961501-72.0962442,72.0961501Z"/>
  <g>
    <path class="st0" d="M54.8087924,42.275597c-16.3855726,0-29.8215582,13.4360816-29.8215582,29.8216324,0,16.5494838,13.4359857,29.8216324,29.8215582,29.8216324,16.3855508,0,29.8216071-13.4360852,29.8216071-29.8216324s-13.4360562-29.8216324-29.8216071-29.8216324Z"/>
    <path class="st0" d="M108.4724241,61.364582h-14.1731739v21.4652949h14.1731739c5.9274616,0,10.7326475-4.8051642,10.7326475-10.7326475v-.0000217c0-5.9274616-4.8051859-10.7326257-10.7326475-10.7326257Z"/>
  </g>
  <g>
    <path class="st1" d="M266.7603122,83.7387621c0,6.3903069-1.8023111,11.7374874-8.5201004,11.7374874-6.7182525,0-8.5205636-5.3471805-8.5205636-11.7374874v-27.2000291h-12.125649v29.8215094c0,11.6337306,9.3399643,18.4156731,20.6462126,18.4156731,11.3057851,0,20.6457494-6.7819425,20.6457494-18.4156731v-29.8215094h-12.125649v27.2000291Z"/>
    <path class="st1" d="M195.151434,40.2384942h-18.7948023v63.3842849h18.7948023c20.1102902,0,35.2365487-6.5589117,35.2365487-31.7347569,0-25.1795508-15.1262585-31.6495281-35.2365487-31.6495281ZM194.6289444,93.8325844h-5.7696189v-43.8020427h5.7696189c11.5392378,0,22.8190837,2.8848095,22.8190837,21.8574805,0,19.1431287-11.2798459,21.9445621-22.8190837,21.9445621Z"/>
    <path class="st1" d="M309.7804733,95.4037587c-6.6441405,0-11.3650747-5.5065213-11.3650747-15.3856505,0-9.7920475,4.9840318-15.1244057,11.2761403-15.1244057,4.6357054,0,8.8304444,3.2349886,9.7939003,7.7817596h11.5392378c-1.6601087-11.6281722-11.454009-17.1365464-21.3331382-17.1365464-14.0738681,0-23.6046709,10.3163899-23.6046709,24.6533556,0,14.2517369,9.0046076,24.5681268,23.0821813,24.5681268,9.7901947,0,19.4951607-4.2836734,22.2928885-17.1383992h-11.5392378c-1.6601087,5.5954557-5.9474877,7.7817596-10.1422267,7.7817596Z"/>
    <polygon class="st1" points="381.2874331 56.5876006 367.7360545 56.5876006 350.601361 75.4731901 350.601361 40.2384942 338.5359279 40.2384942 338.5359279 103.6227791 350.601361 103.6227791 350.601361 89.4599766 356.3709799 83.2530969 368.6995105 103.6227791 382.250889 103.6227791 364.4158371 74.5986685 381.2874331 56.5876006"/>
    <path class="st1" d="M406.0223119,40.2384942h-18.7948023v63.3842849h18.7948023c20.1102902,0,35.2365487-6.5589117,35.2365487-31.7347569,0-25.1795508-15.1262585-31.6495281-35.2365487-31.6495281ZM405.4998223,93.8325844h-5.7696189v-43.8020427h5.7696189c11.5392378,0,22.8190837,2.8848095,22.8190837,21.8574805,0,19.1431287-11.2798459,21.9445621-22.8190837,21.9445621Z"/>
    <path class="st1" d="M490.5581317,70.1389792c3.2349886-2.0973695,7.1703357-7.4315804,7.1703357-13.3753626,0-13.0270362-11.9802042-16.5251224-23.0821813-16.5251224h-24.6533556v63.3842849h25.7020404c13.028889,0,24.3050292-5.0692606,24.3050292-18.7095735,0-8.74151-4.546771-12.4137594-9.4418683-14.7742265ZM462.4956532,50.0305417h12.936249c5.8585533,0,9.4455739,2.9718911,9.4455739,7.9559228,0,5.5954557-3.4980862,8.3931836-9.4455739,8.3931836h-12.936249v-16.3491064ZM476.3064237,93.8325844h-13.8107705v-18.0129207h13.288281c7.7817596,0,11.454038,3.1497598,11.454038,9.093542,0,5.8585533-3.5870206,8.9193788-10.9315484,8.9193788Z"/>
  </g>
</svg>